<svg width="20" height="20" viewBox="0 0 20 20" fill="none" xmlns="http://www.w3.org/2000/svg">
<g clip-path="url(#clip0_12_12)">
<path d="M4.1616 2.33746C6.3636 3.98986 8.7312 7.34146 9.6 9.13906C10.47 7.34146 12.8376 3.99106 15.0384 2.33746C16.626 1.14586 19.2 0.223059 19.2 3.15826C19.2 3.74506 18.864 8.08426 18.6672 8.78866C17.9808 11.2367 15.4836 11.8619 13.2624 11.4839C17.1456 12.1451 18.1344 14.3339 15.9996 16.5239C11.9484 20.6807 10.1772 15.4799 9.7236 14.1479C9.6396 13.9031 9.6 13.7879 9.6 13.8863C9.6 13.7891 9.5604 13.9031 9.4776 14.1479C9.0228 15.4799 7.2516 20.6807 3.2004 16.5239C1.0668 14.3339 2.0544 12.1439 5.9364 11.4839C3.7164 11.8619 1.218 11.2379 0.5328 8.78866C0.336 8.08426 0 3.74386 0 3.15826C0 0.223059 2.574 1.14586 4.1616 2.33746Z" fill="#292929"/>
</g>
<defs>
<clipPath id="clip0_12_12">
<rect width="19.2" height="19.2" fill="white"/>
</clipPath>
</defs>
</svg>
