<svg width="20" height="20" viewBox="0 0 20 20" fill="none" xmlns="http://www.w3.org/2000/svg">
<path d="M8.65918 1.00305C8.93846 1.00261 9.25052 1.00305 9.60059 1.00305C12.4015 1.00305 12.734 1.01334 13.8398 1.0636C14.8627 1.11037 15.4183 1.28133 15.7881 1.42493C16.2777 1.61509 16.6272 1.8419 16.9941 2.20911C17.3613 2.57631 17.5887 2.92653 17.7793 3.41614C17.9229 3.78553 18.0941 4.34078 18.1406 5.3634C18.1909 6.46935 18.2012 6.80178 18.2012 9.60168C18.2012 12.4015 18.1909 12.734 18.1406 13.84C18.0938 14.8627 17.9229 15.4179 17.7793 15.7872C17.5892 16.2768 17.3612 16.6254 16.9941 16.9923C16.6269 17.3595 16.2779 17.5873 15.7881 17.7775C15.4187 17.9217 14.8625 18.092 13.8398 18.1388C12.7342 18.189 12.4014 18.2003 9.60059 18.2003C6.79932 18.2003 6.46729 18.1891 5.36133 18.1388C4.3384 18.0916 3.78313 17.9201 3.41309 17.7765C2.9237 17.5864 2.5741 17.3593 2.20703 16.9923C1.83983 16.6251 1.61247 16.2761 1.42188 15.7863C1.27828 15.4169 1.10711 14.8618 1.06055 13.839C1.01027 12.733 1 12.4005 1 9.59875C1 6.79721 1.01028 6.46644 1.06055 5.36047C1.10733 4.33794 1.2783 3.783 1.42188 3.41321C1.61204 2.9236 1.83982 2.57338 2.20703 2.20618C2.57414 1.83912 2.9236 1.61157 3.41309 1.42102C3.78291 1.27676 4.33841 1.10669 5.36133 1.05969C6.3291 1.01598 6.7042 1.00231 8.65918 1.00012V1.00305ZM9.60059 4.21594C6.62533 4.21607 4.21306 6.62839 4.21289 9.60364C4.21289 12.579 6.62523 14.9902 9.60059 14.9904C11.4602 14.9904 13.1003 14.0492 14.0684 12.6163C14.1652 12.4731 14.255 12.3246 14.3379 12.172C14.7525 11.4087 14.9883 10.5335 14.9883 9.60364C14.9882 7.37203 13.6309 5.45761 11.6973 4.63977C11.5363 4.57169 11.3716 4.51056 11.2031 4.45813C11.1187 4.43188 11.0334 4.40802 10.9473 4.38586C10.775 4.34153 10.5994 4.30571 10.4209 4.27844C10.3318 4.26482 10.2419 4.25345 10.1514 4.24426C9.97027 4.22587 9.78654 4.21594 9.60059 4.21594ZM9.60059 6.10657C11.5318 6.10657 13.0975 7.67223 13.0977 9.60364C13.0977 11.535 11.5319 13.1007 9.60059 13.1007C7.66914 13.1006 6.10352 11.5349 6.10352 9.60364C6.10369 7.67231 7.66925 6.10669 9.60059 6.10657ZM15.2012 2.74426C14.5061 2.74426 13.9424 3.30874 13.9424 4.00403C13.9426 4.69891 14.5062 5.26282 15.2012 5.26282C15.8961 5.26281 16.4597 4.6989 16.46 4.00403C16.46 3.78681 16.4055 3.58178 16.3086 3.40344C16.2699 3.3322 16.2241 3.26535 16.1729 3.20325C16.1472 3.17212 16.1203 3.14192 16.0918 3.1134C16.0349 3.05646 15.9722 3.00534 15.9053 2.96008C15.8716 2.93731 15.8367 2.9161 15.8008 2.89661C15.7294 2.85785 15.654 2.82541 15.5752 2.8009C15.4571 2.76422 15.3313 2.74426 15.2012 2.74426Z" fill="#292929"/>
</svg>
