<svg width="20" height="20" viewBox="0 0 20 20" fill="none" xmlns="http://www.w3.org/2000/svg">
<path d="M13.2754 1.02588C13.4085 1.69069 13.7889 2.57177 14.4814 3.46436C15.1335 4.30444 15.9485 4.83545 17.0127 4.83545H17.542V8.01221H17.0127C15.5029 8.01221 14.2731 7.48896 13.3066 6.74854V12.7769C13.3065 15.9929 10.6985 18.5999 7.48242 18.6001C4.26632 18.5999 1.65933 15.993 1.65918 12.7769C1.65918 9.56062 4.26623 6.95281 7.48242 6.95264H8.01172V10.1294H7.48242C6.0206 10.1296 4.83594 11.315 4.83594 12.7769C4.83608 14.2386 6.02069 15.4241 7.48242 15.4243C8.94411 15.4241 10.1297 14.2386 10.1299 12.7769V0.600098H13.1904L13.2754 1.02588Z" fill="#292929"/>
</svg>
